<?xml version="1.0" encoding="UTF-8"?>
<svg id="Layer_1" xmlns="http://www.w3.org/2000/svg" viewBox="0 0 336.01 54.69">
  <defs>
    <style>
      .cls-1 {
        fill: #786b51;
      }

      .cls-2 {
        fill: #c7a92f;
      }

      .cls-3 {
        fill: #191919;
      }

      .cls-4 {
        fill: #2d4e4b;
      }

      .cls-5 {
        fill: #00425f;
      }
    </style>
  </defs>
  <g>
    <path class="cls-3" d="M0,52.44V1.52h21.17c2.96,0,5.58.53,7.86,1.6,2.28,1.07,4.06,2.56,5.35,4.47,1.29,1.91,1.93,4.16,1.93,6.73v.58c0,2.38-.45,4.33-1.34,5.86s-1.99,2.72-3.28,3.57c-1.29.85-2.54,1.47-3.75,1.86v1.02c1.21.29,2.47.86,3.78,1.71,1.31.85,2.41,2.05,3.31,3.6.9,1.55,1.34,3.52,1.34,5.89v.73c0,2.76-.65,5.15-1.97,7.17-1.31,2.01-3.12,3.54-5.42,4.58-2.3,1.04-4.94,1.56-7.89,1.56H0h0ZM6.12,24h14.48c2.96,0,5.31-.74,7.06-2.22,1.75-1.48,2.62-3.43,2.62-5.86v-.73c0-2.47-.87-4.45-2.62-5.93s-4.1-2.22-7.06-2.22H6.12v16.95ZM6.12,46.92h14.33c3.2,0,5.65-.75,7.35-2.26,1.7-1.5,2.55-3.54,2.55-6.11v-.65c0-2.57-.85-4.61-2.55-6.11s-4.15-2.26-7.35-2.26H6.12v17.39h0Z"/>
    <path class="cls-3" d="M116.2,53.46c-3.69,0-6.98-.65-9.9-1.97-2.91-1.31-5.2-3.29-6.87-5.93-1.67-2.64-2.51-5.95-2.51-9.93v-1.53h6.04v1.53c0,4.22,1.24,7.36,3.71,9.42s5.65,3.09,9.53,3.09,7.01-.9,9.09-2.69c2.08-1.79,3.13-4.05,3.13-6.77,0-1.89-.47-3.39-1.42-4.51-.95-1.12-2.27-2.02-3.97-2.73-1.7-.7-3.69-1.32-5.96-1.86l-3.78-.95c-2.96-.77-5.58-1.72-7.86-2.84-2.28-1.12-4.06-2.58-5.35-4.4-1.29-1.82-1.93-4.16-1.93-7.02s.72-5.34,2.15-7.42c1.43-2.08,3.44-3.68,6.04-4.8,2.59-1.12,5.59-1.67,8.98-1.67s6.53.59,9.27,1.78,4.9,2.93,6.48,5.24,2.36,5.2,2.36,8.69v3.05h-6.04v-3.05c0-2.47-.52-4.46-1.56-5.96-1.04-1.5-2.47-2.62-4.29-3.35s-3.89-1.09-6.22-1.09c-3.35,0-6.04.74-8.08,2.22-2.04,1.48-3.05,3.58-3.05,6.29,0,1.79.44,3.25,1.31,4.36.87,1.12,2.11,2.02,3.71,2.73s3.51,1.32,5.75,1.86l3.78.95c2.96.63,5.61,1.49,7.97,2.58,2.35,1.09,4.23,2.57,5.64,4.44s2.11,4.31,2.11,7.31-.75,5.63-2.26,7.86c-1.5,2.23-3.62,3.96-6.37,5.2-2.74,1.24-5.95,1.86-9.64,1.86h0Z"/>
    <path class="cls-3" d="M163.22,53.47c-3.78,0-7.08-.68-9.9-2.04-2.82-1.36-5-3.39-6.55-6.07-1.55-2.69-2.33-6-2.33-9.93V1.53h6.04v33.98c0,4.17,1.12,7.3,3.35,9.38,2.23,2.09,5.36,3.13,9.38,3.13s7.16-1.04,9.38-3.13c2.23-2.08,3.35-5.21,3.35-9.38V1.53h6.11v33.9c0,3.93-.78,7.24-2.33,9.93-1.55,2.69-3.75,4.72-6.59,6.07s-6.15,2.04-9.93,2.04h0Z"/>
    <path class="cls-3" d="M193.27,52.45V1.53h11.86l17.75,47.07h.95V1.53h6.04v50.93h-11.86l-17.68-47.14h-1.02v47.14h-6.04,0Z"/>
    <path class="cls-3" d="M241.58,52.45V1.53h6.11v50.93h-6.11Z"/>
    <path class="cls-3" d="M271.84,52.45V7.06h-16.37V1.53h38.85v5.53h-16.37v45.4h-6.11Z"/>
    <path class="cls-3" d="M317.75,53.47c-3.69,0-6.98-.65-9.9-1.97-2.91-1.31-5.2-3.29-6.87-5.93-1.67-2.64-2.51-5.95-2.51-9.93v-1.53h6.04v1.53c0,4.22,1.24,7.36,3.71,9.42s5.65,3.09,9.53,3.09,7.01-.9,9.09-2.69c2.08-1.79,3.13-4.05,3.13-6.77,0-1.89-.47-3.39-1.42-4.51s-2.27-2.02-3.97-2.73-3.69-1.32-5.96-1.86l-3.78-.95c-2.96-.77-5.58-1.72-7.86-2.84s-4.06-2.58-5.35-4.4-1.93-4.16-1.93-7.02.72-5.34,2.15-7.42c1.43-2.08,3.44-3.68,6.04-4.8,2.59-1.12,5.59-1.67,8.98-1.67s6.53.59,9.27,1.78,4.9,2.93,6.48,5.24c1.58,2.3,2.36,5.2,2.36,8.69v3.05h-6.04v-3.05c0-2.47-.52-4.46-1.56-5.96-1.04-1.5-2.47-2.62-4.29-3.35-1.82-.73-3.89-1.09-6.22-1.09-3.35,0-6.04.74-8.08,2.22-2.04,1.48-3.05,3.58-3.05,6.29,0,1.79.44,3.25,1.31,4.36.87,1.12,2.11,2.02,3.71,2.73s3.51,1.32,5.75,1.86l3.78.95c2.96.63,5.61,1.49,7.97,2.58,2.35,1.09,4.23,2.57,5.64,4.44s2.11,4.31,2.11,7.31-.75,5.63-2.26,7.86c-1.5,2.23-3.62,3.96-6.37,5.2-2.74,1.24-5.95,1.86-9.64,1.86h0Z"/>
  </g>
  <path class="cls-4" d="M68.01,19.95l14.76-14.77C78.58,2.15,73.51.27,68.01.02v19.94h0Z"/>
  <path class="cls-1" d="M90.73,14.22l-22.73,22.73v10.91l25.6-25.6c-.54-2.86-1.52-5.57-2.87-8.04Z"/>
  <path class="cls-2" d="M66.12,19.87V0c-5.57.12-10.73,1.9-15,4.88l15,15Z"/>
  <path class="cls-5" d="M68.01,34.28l21.73-21.73c-1.5-2.33-3.35-4.42-5.47-6.2l-16.27,16.27v11.66Z"/>
  <path class="cls-2" d="M68.05,50.48l-.04-.04v4.22c14.52-.67,26.08-12.64,26.08-27.33,0-.93-.05-1.85-.14-2.76l-25.9,25.9h0Z"/>
  <path class="cls-4" d="M66.12,50.44l-26.53-26.53c-.14,1.12-.22,2.27-.22,3.43,0,14.9,11.92,27.02,26.75,27.34v-4.25h0Z"/>
  <path class="cls-5" d="M66.12,47.77v-10.91l-23.13-23.13c-1.39,2.42-2.43,5.07-3.02,7.89l26.15,26.15h0Z"/>
  <path class="cls-1" d="M66.12,34.2v-11.66L49.6,6.02c-2.15,1.73-4.04,3.78-5.59,6.07l22.11,22.11h0Z"/>
</svg>